<svg xmlns="http://www.w3.org/2000/svg" xmlns:xlink="http://www.w3.org/1999/xlink" aria-hidden="true" style="position:absolute;width:0;height:0;overflow:hidden">
  <defs>
    <path id="reuse-0" d="M16 27a11 11 0 1 1 0-22 11 11 0 0 1 0 22zm0 2a13 13 0 1 0 0-26 13 13 0 0 0 0 26z"/>
  </defs>
  <defs>
    <symbol id="icon-behance" viewBox="0 0 32 32">
      <path d="M23 5a1 1 0 0 0 0 3h5a1 1 0 0 0 0-3h-5zM19 17a7 7 0 0 1 13 0v2l-1 1H21a4 4 0 0 0 7 3h1c1 0 2 1 1 2a7 7 0 0 1-11-5v-3zm6-4c-2 0-4 2-4 4h8c0-2-1-4-4-4zM3 8h6a3 3 0 1 1 0 5H3V8zm10 6a7 7 0 0 1-4 13H2c-1 0-2-1-2-3V7l2-2h7a5 5 0 0 1 4 9zM3 16v8h6a4 4 0 0 0 0-8H3z"/>
    </symbol>
    <symbol id="icon-benefits" viewBox="0 0 32 32">
      <path d="M22 2a6 6 0 0 0-6 5 6 6 0 0 0-6-5C6 2 5 6 6 9H3a1 1 0 0 0-1 1v2a1 1 0 0 0 1 1h26a1 1 0 0 0 1-1v-2a1 1 0 0 0-1-1h-3c1-3 0-7-4-7zm1 7h-5a4 4 0 0 1 4-5c3 0 3 4 1 5zm-9 0H9C7 8 7 4 9 4h1a4 4 0 0 1 4 5zM4 15v10a3 3 0 0 0 3 3h7V15H4zm14 0v13h7a3 3 0 0 0 3-3V15H18z"/>
    </symbol>
    <symbol id="icon-check" viewBox="0 0 32 32">
      <path stroke-linecap="round" stroke-linejoin="round" stroke-miterlimit="10" stroke-width="2.7" d="m8 16 5 5 11-10"/>
    </symbol>
    <symbol id="icon-checkbox" viewBox="0 0 32 32">
      <path d="M7 4h18a3 3 0 0 1 3 3v18a3 3 0 0 1-3 3H7a3 3 0 0 1-3-3V7a3 3 0 0 1 3-3zm16 9a1 1 0 0 0-2-2l-7 7-3-3a1 1 0 0 0-2 2l4 4a1 1 0 0 0 2 0l8-8z"/>
    </symbol>
    <symbol id="icon-cursor" viewBox="0 0 32 32">
      <path d="M6 4a1 1 0 0 0-2 2l9 23a1 1 0 0 0 3 0l3-9 1-1 9-3a1 1 0 0 0 0-2v-1L6 4z"/>
    </symbol>
    <symbol id="icon-down" viewBox="0 0 32 32">
      <path d="M22 13h-2l-4 4-4-4a1 1 0 1 0-2 2l5 5h2l5-5v-2z"/>
    </symbol>
    <symbol id="icon-dribbble" viewBox="0 0 32 32">
      <use xlink:href="#reuse-0"/>
      <path d="m21 29-3-10-10 8-2-2 11-8-1-3-13 2v-3l12-1-6-7 3-2 5 8 8-5 2 2-9 5 2 3 9-1v2l-8 1 2 9-2 2z"/>
    </symbol>
    <symbol id="icon-dribble" viewBox="0 0 115 32">
      <path d="M113 17h1l1 1v1c-1 2-4 4-7 4l-6-2h-1c-1 1-2 3-4 3-3 0-4-2-3-6l-1-1h-2v1c-1 3-4 6-7 7-2 0-6-2-5-7h-4c-1 4-3 7-7 7-2 0-5-1-5-6 0 0 0-1 0 0h-3c-1 4-4 7-7 7-2 0-4 0-5-3-2 2-3 4-5 4s-3-1-3-2h-1l-4 2c-2 0-3-1-3-3l2-8h-1l-2-1v1l-5 11h-1l-1-1v-1l5-13v-1h2v1l1 1h5l1 1-3 9 1 1c1 0 3-2 4-5l2-7h3v1c-2 6-3 11-1 10 1 0 3-2 4-5l1-1 3-11 1-3 2-1 1 1a312 312 0 0 0-2 8h3c2-1 4 1 4 4v1l3-1 3-10 1-3h3a312 312 0 0 0-1 9l2-1c2 0 4 1 4 4v1h1l3-1 3-10V1h4a312 312 0 0 0-2 9l3-1c2 0 4 1 4 4v1l3-1 4-13h3a385 385 0 0 0-4 20l4-3v-1c0-4 3-8 7-8 3-1 4 1 4 3 1 4-3 7-7 7h-1l4 2 4-3zm-62 1c0 4 1 5 2 5 2 0 5-4 4-7l-1-2c-2 0-4 2-5 4zm16 0c-1 3 0 4 1 4 3 0 5-4 5-7 0-2-1-2-2-2-2 0-3 2-4 5zm15-1c-1 3 0 5 2 4 2 0 4-4 4-7l-2-2c-1 0-3 2-4 5zm28-5-1-1c-2 0-4 2-4 4v1c3 0 5-2 5-4zm-86 2c0-7-5-12-12-12L3 5v1l1 2h1c2-2 5-3 7-3 5 0 9 3 9 9 0 7-4 14-12 15H8v-1a414 414 0 0 1 4-18H9a449 449 0 0 0-5 18l-2-1-1 1-1 2 9 2c10-1 16-10 15-18zm21-9-2 3 1 2c2 0 3-2 3-3l-2-2z"/>
    </symbol>
    <symbol id="icon-facebook" viewBox="0 0 32 32">
      <use xlink:href="#reuse-0"/>
      <path d="m16 13 1-1h2a1 1 0 0 0 0-3h-2c-2 0-4 2-4 4v3h-1a1 1 0 0 0 0 3h1v8a1 1 0 0 0 3 0v-8h3a1 1 0 0 0 0-3h-3v-3z"/>
    </symbol>
    <symbol id="icon-figma" viewBox="0 0 90 32">
      <path d="M0 0v25h3V13h8v-3H3V3h10V0H0zM19 5l2-2-2-2-2 2 2 2zM18 8v17h3V8h-3zM33 8c-5 0-8 3-8 7s3 8 8 8c2 0 3 0 4-2v3c0 2-2 5-5 5l-2-1-2 2a8 8 0 0 0 13-6V8h-4v2c-1-2-2-2-4-2zm-4 7c0-2 2-4 4-4s4 2 4 4-2 5-4 5-4-2-4-5zM52 11c-2 0-3 1-3 3v11h-3V8h3v2c1-2 2-2 4-2l5 2 5-2c4 0 6 3 6 6v11h-3V14c0-2-2-3-4-3s-3 1-3 3v11h-3V14c0-2-2-3-4-3zM86 10l-5-2c-5 0-9 4-9 8s4 9 9 9l5-2v2h4V8h-4v2zm-10 6c0-3 2-5 5-5s5 2 5 5c0 4-2 6-5 6s-5-2-5-6z"/>
    </symbol>
    <symbol id="icon-framer" viewBox="0 0 141 32">
      <path d="M40 26V5h13v4h-8v6h8v4h-8v7h-5zM56 26V11h5v3l1-2 3-1h1v4h-1c-3 0-4 2-4 5v6h-5zM74 26c-2 0-4 0-5-2l-2-5 2-6 5-2 3 1 2 1v-2h4v15h-4v-2l-2 2h-3zm1-4 3-1 1-2-1-3-3-1-2 1-1 3 1 2 2 1zM87 26V11h5v2l1-1 3-1c2 0 4 1 4 3l2-2 3-1c3 0 5 2 5 6v9h-4v-8c0-2-1-3-3-3-1 0-2 1-2 3v8h-5v-8c0-2 0-3-2-3l-2 1v10h-5zM128 18v2h-11l1 2 3 1 3-1h4l-2 3-5 1c-3 0-5 0-6-2l-2-5 2-6 6-2 5 2c2 1 2 3 2 5zm-11-1h7l-1-2-2-1-3 1-1 2zM131 26V11h5v3l1-2 3-1h1v4h-2c-2 0-3 2-3 5v6h-5zM21 0v11H11L0 0h21zM0 11h11l10 10H11v11L0 21V11z"/>
    </symbol>
    <symbol id="icon-menu" viewBox="0 0 32 32">
      <path stroke-linecap="round" stroke-linejoin="round" stroke-width="2.7" d="M4 23h24M4 16h24M4 9h24"/>
    </symbol>
    <symbol id="icon-more" viewBox="0 0 32 32">
      <path d="M14 7a2 2 0 1 0 4 0 2 2 0 0 0-4 0zm0 9a2 2 0 1 0 4 0 2 2 0 0 0-4 0zm0 9a2 2 0 1 0 4 0 2 2 0 0 0-4 0z"/>
    </symbol>
    <symbol id="icon-pricing" viewBox="0 0 32 32">
      <path d="M28 22 20 7h-1l-2-2 9 16a1 1 0 0 1 0 1l-10 6h1a1 1 0 0 0 1 1l10-6a1 1 0 0 0 0-1z"/>
      <path d="M24 21 15 6V5l-4-2-7 4a1 1 0 0 0 0 1v4l8 15a1 1 0 0 0 1 0l11-6zM9 9a1 1 0 1 1-1-2 1 1 0 0 1 1 2z"/>
    </symbol>
    <symbol id="icon-process" viewBox="0 0 32 32">
      <path d="M4 23v5h5l15-15-5-5L4 23zm26 1-6 6-6-7 2-2 1 1 4-3 1 2-2 2 2 1 2-2 2 2zM9 14 2 8l6-6 2 2-3 4 1 1 3-3 2 2-2 1 2 2-4 3zm19-5V7l-4-3h-1l-3 3 5 5 3-3z"/>
    </symbol>
    <symbol id="icon-sand-clock" viewBox="0 0 32 32">
      <path d="M17 8h-2v1a1 1 0 0 0 2 0V8z"/>
      <path d="M8 3h16v2h-1v4a7 7 0 0 1-7 7 7 7 0 0 1 7 7v4h1v2H8v-2h1v-4a7 7 0 0 1 7-7 7 7 0 0 1-7-7V5H8V3zm4 2v4a4 4 0 1 0 8 0V5h-8zm0 18v4h8v-4a4 4 0 1 0-8 0z"/>
    </symbol>
    <symbol id="icon-up" viewBox="0 0 32 32">
      <path d="M10 19h2l4-4 4 4a1 1 0 1 0 2-2l-5-5h-2l-5 5v2z"/>
    </symbol>
    <symbol id="icon-webflow" viewBox="0 0 192 32">
      <path d="M0 0h192v32H0V0z"/>
    </symbol>
  </defs>
</svg>