<!-- Generated by IcoMoon.io -->
<svg version="1.1" xmlns="http://www.w3.org/2000/svg" width="32" height="32" viewBox="0 0 32 32">
<path d="M22.667 5.333c-0.736 0-1.333 0.597-1.333 1.333s0.597 1.333 1.333 1.333h5.333c0.736 0 1.333-0.597 1.333-1.333s-0.597-1.333-1.333-1.333h-5.333z"></path>
<path d="M18.667 17.333c0-3.682 2.985-6.667 6.667-6.667s6.667 2.985 6.667 6.667v1.333c0 0.736-0.597 1.333-1.333 1.333h-9.333c0 2.209 1.791 4 4 4 0.93 0 1.786-0.317 2.465-0.85 0.355-0.278 0.774-0.484 1.225-0.484 1.143 0 1.874 1.18 1.074 1.997-1.21 1.236-2.898 2.003-4.764 2.003-3.682 0-6.667-2.985-6.667-6.667v-2.667zM25.333 13.333c-2.209 0-4 1.791-4 4h8c0-2.209-1.791-4-4-4z"></path>
<path d="M2.667 8h6.667c1.473 0 2.667 1.194 2.667 2.667s-1.194 2.667-2.667 2.667h-6.667v-5.333zM13.066 14.476c1.77 1.199 2.934 3.225 2.934 5.524 0 3.682-2.985 6.667-6.667 6.667h-7.048c-1.262 0-2.286-1.023-2.286-2.286v-16.914c0-1.178 0.955-2.133 2.133-2.133h7.2c2.946 0 5.333 2.388 5.333 5.333 0 1.492-0.613 2.841-1.6 3.809zM2.667 16v8h6.667c2.209 0 4-1.791 4-4s-1.791-4-4-4h-6.667z"></path>
</svg>
