<!-- Generated by IcoMoon.io -->
<svg version="1.1" xmlns="http://www.w3.org/2000/svg" width="32" height="32" viewBox="0 0 32 32">
<path d="M22.4 2.138c-1.453-0.046-2.879 0.404-4.042 1.277s-1.995 2.115-2.358 3.523c-0.363-1.408-1.194-2.651-2.358-3.523s-2.589-1.323-4.042-1.277c-3.695-0.117-4.832 3.829-3.588 6.396h-2.812c-0.283 0-0.554 0.112-0.754 0.312s-0.312 0.471-0.312 0.754v2.133c0 0.283 0.112 0.554 0.312 0.754s0.471 0.312 0.754 0.312h25.6c0.283 0 0.554-0.112 0.754-0.312s0.312-0.471 0.312-0.754v-2.133c0-0.283-0.112-0.554-0.312-0.754s-0.471-0.312-0.754-0.312h-2.786c1.293-2.528 0.209-6.398-3.529-6.398l-0.085 0.002zM22.79 8.533h-4.657c0.001-1.131 0.451-2.215 1.251-3.014s1.885-1.248 3.015-1.248c2.507 0 2.95 3.994 0.39 4.262zM13.867 8.533h-4.71c-2.208-0.25-2.338-4.041 0.085-4.262 0.119-0.011 0.239-0.011 0.358 0 1.131 0 2.215 0.449 3.015 1.248s1.25 1.883 1.251 3.014zM4.267 14.935v9.6c0 0.849 0.337 1.663 0.937 2.263s1.414 0.937 2.263 0.937h6.4v-12.8h-9.6zM18.133 14.935v12.8h6.4c0.849 0 1.663-0.337 2.263-0.937s0.937-1.414 0.937-2.263v-9.6h-9.6z"></path>
</svg>
