<!-- Generated by IcoMoon.io -->
<svg version="1.1" xmlns="http://www.w3.org/2000/svg" width="32" height="32" viewBox="0 0 32 32">
<path d="M6.667 4h18.667c0.707 0 1.385 0.281 1.886 0.781s0.781 1.178 0.781 1.886v18.667c0 0.707-0.281 1.385-0.781 1.886s-1.178 0.781-1.886 0.781h-18.667c-0.707 0-1.386-0.281-1.886-0.781s-0.781-1.178-0.781-1.886v-18.667c0-0.707 0.281-1.386 0.781-1.886s1.178-0.781 1.886-0.781zM22.6 13.061c0.25-0.25 0.391-0.589 0.391-0.943s-0.14-0.693-0.39-0.943c-0.25-0.25-0.589-0.391-0.943-0.391s-0.693 0.14-0.943 0.39l-6.6 6.6-2.828-2.828c-0.124-0.124-0.271-0.222-0.433-0.289s-0.335-0.102-0.51-0.102c-0.354-0-0.693 0.14-0.943 0.39s-0.391 0.589-0.391 0.943c-0 0.354 0.14 0.693 0.39 0.943l3.677 3.677c0.136 0.136 0.298 0.244 0.476 0.318s0.369 0.112 0.561 0.112c0.193 0 0.383-0.038 0.561-0.112s0.34-0.182 0.476-0.318l7.448-7.448z"></path>
</svg>
