<!-- Generated by IcoMoon.io -->
<svg version="1.1" xmlns="http://www.w3.org/2000/svg" width="115" height="32" viewBox="0 0 115 32">
<path d="M113.335 17.302c0.22-0.271 0.659-0.271 0.877 0.054l0.823 1.139c0.164 0.217 0.164 0.542 0 0.759-1.481 1.898-4.005 3.688-7.132 3.851-2.413 0.163-4.444-0.759-5.54-2.495-0.22-0.325-0.713-0.38-0.933-0.054-1.316 1.736-2.852 3.092-4.498 3.146-2.907 0.163-3.73-1.79-3.017-6.020 0.055-0.434-0.329-0.759-0.713-0.651-0.604 0.163-1.262 0.217-1.92 0.163-0.275 0-0.549 0.163-0.604 0.38-1.097 3.525-3.62 6.78-6.967 6.942-2.14 0.108-5.266-1.085-4.992-6.129 0-0.434-0.329-0.705-0.713-0.597-0.659 0.217-1.371 0.271-2.084 0.217-0.275 0-0.549 0.163-0.604 0.38-1.097 3.525-3.62 6.78-6.967 6.942-2.139 0.108-5.266-1.085-4.992-6.129 0-0.434-0.329-0.705-0.713-0.597-0.658 0.217-1.371 0.271-2.085 0.217-0.274 0-0.549 0.163-0.603 0.38-1.097 3.525-3.621 6.78-6.967 6.942-1.536 0.108-3.566-0.488-4.498-2.658-0.165-0.434-0.713-0.488-0.987-0.108-1.317 1.79-2.907 3.146-4.553 3.254-1.701 0.108-2.633-0.597-3.072-1.79-0.165-0.434-0.658-0.542-0.987-0.217-1.152 1.356-2.523 2.332-3.84 2.441-2.085 0.108-3.291-1.41-3.346-3.254-0.11-2.169 0.823-4.664 1.865-7.431 0.165-0.38-0.11-0.813-0.494-0.813-0.603 0-1.317-0.108-1.92-0.217-0.274-0.054-0.603 0.108-0.658 0.434-1.262 4.393-3.127 8.678-4.773 11.227-0.165 0.271-0.549 0.38-0.823 0.163l-1.207-0.868c-0.274-0.163-0.329-0.542-0.165-0.814 2.304-3.688 4.389-9.437 5.102-13.668 0.055-0.271 0.274-0.488 0.549-0.488l1.646-0.108c0.384 0 0.658 0.325 0.603 0.705v0.054c-0.055 0.325 0.165 0.651 0.494 0.705 1.481 0.217 3.621 0.217 5.102 0.163 0.439 0 0.713 0.434 0.549 0.814-1.207 3.146-2.798 7.485-2.688 9.166 0.055 0.759 0.384 1.193 0.987 1.139 1.152-0.054 2.962-2.386 4.334-4.936 0-0.054 0.055-0.108 0.055-0.163 0.439-2.007 1.152-4.285 1.81-6.563l0.055-0.163c0.055-0.217 0.274-0.38 0.494-0.434l1.975-0.108c0.384 0 0.713 0.38 0.603 0.759-0.11 0.325-0.219 0.651-0.274 0.976-1.701 5.586-3.182 10.251-1.207 10.142 1.262-0.054 3.072-2.224 4.608-5.207 0-0.054 0.055-0.108 0.055-0.163 0.055-0.38 0.165-0.814 0.274-1.247 0.878-3.58 1.92-7.105 2.962-10.631 0.329-1.085 0.658-2.17 0.933-3.254 0.055-0.217 0.274-0.434 0.549-0.434l2.030-0.108c0.384 0 0.713 0.38 0.603 0.759-0.823 2.495-1.646 5.098-2.414 7.647-0.165 0.542 0.439 0.976 0.878 0.651 0.768-0.542 1.701-0.868 2.578-0.922 2.249-0.108 3.785 1.681 3.95 4.447 0 0.163 0 0.325 0 0.488 0 0.325 0.219 0.542 0.549 0.597 1.042 0.108 2.139-0.217 2.962-0.976 0.11-0.054 0.165-0.163 0.165-0.271 0.823-3.2 1.755-6.346 2.688-9.546 0.329-1.085 0.603-2.17 0.933-3.254 0.055-0.217 0.274-0.434 0.549-0.434l2.030-0.108c0.384 0 0.713 0.38 0.603 0.759-0.823 2.495-1.645 5.098-2.413 7.647-0.165 0.542 0.439 0.976 0.878 0.651 0.768-0.542 1.701-0.868 2.578-0.922 2.249-0.108 3.785 1.681 3.95 4.447 0 0.163 0 0.325 0 0.488 0 0.325 0.22 0.542 0.549 0.597 1.043 0.108 2.139-0.217 2.963-0.976 0.109-0.054 0.164-0.163 0.164-0.271 0.823-3.2 1.756-6.346 2.688-9.546 0.329-1.085 0.604-2.17 0.932-3.254 0.055-0.217 0.275-0.434 0.549-0.434l2.029-0.108c0.384 0 0.713 0.38 0.604 0.759-0.823 2.495-1.646 5.098-2.414 7.647-0.164 0.542 0.439 0.976 0.878 0.651 0.768-0.542 1.7-0.868 2.578-0.922 2.249-0.108 3.785 1.681 3.95 4.447 0 0.163 0 0.325 0 0.488 0 0.325 0.219 0.542 0.548 0.597 1.043 0.108 2.085-0.217 2.908-0.868 0.109-0.054 0.164-0.163 0.164-0.325 0.933-3.58 2.359-8.353 3.676-12.854 0.055-0.217 0.274-0.38 0.493-0.434l1.975-0.108c0.384 0 0.713 0.38 0.604 0.759-1.865 6.075-3.347 11.336-4.169 14.481-1.097 4.231-1.152 5.478 0.109 5.37 1.043-0.054 2.469-1.519 3.785-3.742 0.055-0.108 0.055-0.163 0.109-0.271 0.165-4.447 2.963-8.515 7.077-8.732 2.743-0.163 4.279 1.898 4.388 3.905 0.22 3.851-3.675 6.346-7.406 6.129-0.439-0.054-0.768 0.434-0.549 0.814 0.549 1.085 1.646 1.736 3.511 1.627 1.371 0.217 3.291-1.356 4.443-2.712zM51.456 18.387c-0.878 3.525 0.165 4.881 1.591 4.827 2.304-0.108 4.498-4.285 4.334-7.485-0.055-1.41-0.878-2.115-1.865-2.061-1.646 0.108-3.346 1.898-4.059 4.719zM66.816 17.519c-0.878 3.525 0.165 4.881 1.591 4.827 2.304-0.108 4.498-4.285 4.333-7.485-0.055-1.41-0.877-2.115-1.865-2.061-1.591 0.108-3.346 1.898-4.059 4.719zM82.231 16.651c-0.877 3.525 0.165 4.881 1.591 4.827 2.304-0.108 4.498-4.285 4.334-7.485-0.055-1.41-0.878-2.115-1.865-2.061-1.646 0.108-3.347 1.898-4.060 4.719zM110.044 12.041c0-0.922-0.604-1.573-1.536-1.519-1.811 0.108-3.237 2.061-3.731 4.447-0.055 0.38 0.219 0.705 0.603 0.705 2.359-0.054 4.718-1.627 4.663-3.634zM24.357 13.776c-0.219-7.159-4.937-11.878-11.904-11.607-3.017 0.108-6.418 1.247-8.997 3.2-0.219 0.163-0.329 0.542-0.165 0.814l1.097 1.736c0.165 0.325 0.603 0.38 0.878 0.163 1.975-1.627 4.608-2.658 7.186-2.766 4.773-0.217 8.283 2.82 8.448 8.624 0.274 6.78-4.334 14.536-11.739 14.97-0.274 0-0.549 0-0.823 0-0.384 0-0.658-0.38-0.549-0.759 1.426-5.695 3.072-11.824 4.773-17.519 0.11-0.38-0.165-0.814-0.603-0.759l-2.085 0.163c-0.219 0-0.439 0.163-0.549 0.434-1.646 5.586-3.291 11.661-4.718 17.356-0.11 0.325-0.439 0.542-0.713 0.434-0.768-0.271-1.481-0.542-2.085-0.922-0.274-0.163-0.658-0.054-0.823 0.271l-0.933 1.898c-0.165 0.271-0.055 0.651 0.219 0.759 2.085 1.193 5.321 1.844 8.558 1.681 10.587-0.597 15.799-10.251 15.525-18.17zM45.147 4.99c-1.262 0.054-2.414 1.519-2.359 2.983 0.055 0.976 0.713 1.681 1.701 1.627 1.262-0.054 2.469-1.573 2.414-3.037-0.055-0.976-0.823-1.627-1.755-1.573z"></path>
</svg>
