<!-- Generated by IcoMoon.io -->
<svg version="1.1" xmlns="http://www.w3.org/2000/svg" width="32" height="32" viewBox="0 0 32 32">
<path d="M16 26.667c-5.891 0-10.667-4.776-10.667-10.667s4.776-10.667 10.667-10.667 10.667 4.776 10.667 10.667c0 5.891-4.776 10.667-10.667 10.667zM16 29.333c7.364 0 13.333-5.97 13.333-13.333s-5.97-13.333-13.333-13.333c-7.364 0-13.333 5.97-13.333 13.333s5.97 13.333 13.333 13.333z"></path>
<path d="M20.632 28.507c-0.473-3.374-1.262-6.435-2.373-9.329-2.718 1.318-5.758 3.62-9.937 7.725-0.731-0.516-1.408-1.104-2.021-1.753 4.39-4.329 7.743-6.917 10.92-8.432-0.408-0.884-0.847-1.755-1.319-2.618-3.741 1.179-8.006 1.8-13.236 1.889 0.001-0.915 0.094-1.809 0.27-2.672 4.616-0.099 8.35-0.633 11.582-1.583-1.5-2.407-3.258-4.783-5.279-7.229 0.788-0.464 1.628-0.85 2.509-1.146 2.039 2.506 3.826 4.969 5.355 7.488 2.874-1.136 5.422-2.669 7.965-4.622 0.654 0.607 1.246 1.278 1.768 2.004-2.645 2.046-5.342 3.704-8.397 4.954 0.45 0.84 0.871 1.689 1.265 2.55 3.022-0.957 5.997-1.056 9.563-1.067 0.043 0.438 0.066 0.883 0.066 1.332s-0.022 0.896-0.066 1.335c-3.446 0.012-6.001 0.109-8.525 0.869 1.084 2.821 1.885 5.803 2.4 9.057-0.785 0.499-1.625 0.918-2.51 1.246z"></path>
</svg>
