<!-- Generated by IcoMoon.io -->
<svg version="1.1" xmlns="http://www.w3.org/2000/svg" width="32" height="32" viewBox="0 0 32 32">
<path d="M16 26.667c-5.891 0-10.667-4.776-10.667-10.667s4.776-10.667 10.667-10.667 10.667 4.776 10.667 10.667c0 5.891-4.776 10.667-10.667 10.667zM16 29.333c7.364 0 13.333-5.97 13.333-13.333s-5.97-13.333-13.333-13.333c-7.364 0-13.333 5.97-13.333 13.333s5.97 13.333 13.333 13.333z"></path>
<path d="M16 13.333c0-0.736 0.597-1.333 1.333-1.333h1.333c0.736 0 1.333-0.597 1.333-1.333s-0.597-1.333-1.333-1.333h-1.333c-2.209 0-4 1.791-4 4v2.667h-1.333c-0.736 0-1.333 0.597-1.333 1.333s0.597 1.333 1.333 1.333h1.333v8c0 0.736 0.597 1.333 1.333 1.333s1.333-0.597 1.333-1.333v-8h2.667c0.736 0 1.333-0.597 1.333-1.333s-0.597-1.333-1.333-1.333h-2.667v-2.667z"></path>
</svg>
