<!-- Generated by IcoMoon.io -->
<svg version="1.1" xmlns="http://www.w3.org/2000/svg" width="90" height="32" viewBox="0 0 90 32">
<path d="M0 0.002v24.718l3.228 0.010v-11.771h7.783v-3.111h-7.783v-6.736h10.137v-3.111l-13.365 0.002z"></path>
<path d="M19.176 5.019c1.163 0 2.105-0.929 2.105-2.074s-0.942-2.074-2.105-2.074c-1.163 0-2.105 0.929-2.105 2.074s0.943 2.074 2.105 2.074z"></path>
<path d="M17.533 8.131v16.594h3.228v-16.594h-3.228z"></path>
<path d="M32.735 7.647c-4.287 0-7.279 3.572-7.279 7.813s2.992 7.813 7.279 7.813c1.963 0 3.58-0.749 4.757-1.967v2.209c0 2.749-2.192 5.047-5.053 5.047-1.028 0-2.050-0.393-2.864-0.945l-1.617 2.76c1.292 0.82 2.83 1.297 4.482 1.297 4.574 0 8.281-3.653 8.281-8.159v-15.384h-3.228v1.483c-1.177-1.219-2.795-1.967-4.757-1.967zM28.685 15.46c0-2.632 2.044-4.702 4.401-4.702s4.401 2.069 4.401 4.702-2.044 4.702-4.401 4.702c-2.357 0-4.401-2.069-4.401-4.702z"></path>
<path d="M52.353 10.758c-1.909 0-3.456 1.594-3.456 3.474v10.492h-3.228v-16.594h3.228v1.52c0.946-1.205 2.339-2.004 4.158-2.004 2.262 0 3.998 1.107 5.004 2.801 1.118-1.636 2.942-2.801 5.137-2.801 3.674 0 5.961 2.921 5.983 6.534 0 0.011 0 0.022 0 0.033v0.002c0 0.006 0 0.012 0 0.017v10.492h-3.228v-10.492c0-1.881-1.547-3.474-3.456-3.474s-3.456 1.594-3.456 3.474v10.492h-3.228v-10.492c0-1.881-1.547-3.474-3.456-3.474z"></path>
<path d="M86.372 10.012c-1.436-1.461-3.403-2.365-5.685-2.365-4.802 0-8.21 4.006-8.21 8.781s3.408 8.781 8.21 8.781c2.282 0 4.249-0.904 5.685-2.365v1.881h3.228v-16.594h-3.228v1.881zM75.705 16.428c0-3.168 2.462-5.67 5.333-5.67s5.333 2.502 5.333 5.67c0 3.168-2.462 5.67-5.333 5.67s-5.333-2.502-5.333-5.67z"></path>
</svg>
