<!-- Generated by IcoMoon.io -->
<svg version="1.1" xmlns="http://www.w3.org/2000/svg" width="141" height="32" viewBox="0 0 141 32">
<path d="M40.017 25.979v-21.333h12.94v4.129h-8.038v5.735h8.038v4.072h-8.038v7.398h-4.902z"></path>
<path d="M56.206 25.979v-14.681h4.617v3.039c0.228-1.032 0.741-1.892 1.482-2.466s1.596-0.86 2.508-0.86c0.456 0 0.912 0.057 1.197 0.115v4.358c-0.57-0.057-1.026-0.115-1.368-0.115-2.565 0-3.819 1.663-3.819 4.875v5.677h-4.617v0.057z"></path>
<path d="M73.991 26.323c-2.109 0-3.819-0.745-5.016-2.179-1.254-1.434-1.824-3.326-1.824-5.563s0.627-4.072 1.881-5.563c1.254-1.434 2.964-2.179 5.016-2.179 1.026 0 1.939 0.229 2.736 0.688s1.425 1.032 1.824 1.835v-2.122h4.617v14.681h-4.617v-2.064c-0.399 0.746-1.026 1.319-1.881 1.778-0.798 0.516-1.71 0.688-2.736 0.688zM75.302 22.48c1.083 0 1.995-0.344 2.565-1.090s0.912-1.663 0.912-2.753c0-1.090-0.285-2.007-0.912-2.753s-1.482-1.090-2.565-1.090c-1.026 0-1.882 0.344-2.508 1.090-0.627 0.688-0.969 1.663-0.969 2.753 0 1.147 0.342 2.064 0.969 2.81 0.626 0.688 1.482 1.032 2.508 1.032z"></path>
<path d="M87.045 25.978v-14.681h4.617v2.122c0.342-0.746 0.855-1.376 1.596-1.835s1.596-0.688 2.565-0.688c2.281 0 3.819 0.918 4.56 2.695 0.399-0.803 1.026-1.491 1.824-1.95 0.855-0.516 1.767-0.746 2.793-0.746 3.477 0 5.188 2.007 5.188 5.964v9.118h-4.674v-8.258c0-1.95-0.741-2.867-2.166-2.867-1.653 0-2.451 1.204-2.451 3.613v7.57h-4.56v-8.373c0-1.892-0.742-2.867-2.167-2.867-0.798 0-1.425 0.287-1.824 0.803s-0.627 1.491-0.627 2.81v7.57h-4.674z"></path>
<path d="M128.316 17.835c0 0.631-0.058 1.262-0.114 2.065h-10.773c0.057 0.975 0.342 1.72 0.969 2.236s1.425 0.803 2.451 0.803c1.425 0 2.337-0.459 2.736-1.376h4.56c-0.228 1.434-1.026 2.638-2.337 3.498-1.367 0.918-2.964 1.376-4.902 1.376-2.508 0-4.446-0.688-5.871-2.064s-2.166-3.269-2.166-5.735c0-2.409 0.741-4.301 2.166-5.677s3.363-2.064 5.7-2.064c2.28 0 4.105 0.631 5.53 1.95 1.311 1.262 2.052 2.925 2.052 4.989zM117.371 16.975h6.327c0-0.975-0.284-1.72-0.798-2.237s-1.254-0.803-2.28-0.803c-0.969 0-1.767 0.287-2.337 0.86s-0.855 1.319-0.912 2.179z"></path>
<path d="M130.938 25.979v-14.681h4.617v3.039c0.228-1.032 0.741-1.892 1.482-2.466s1.596-0.86 2.508-0.86c0.457 0 0.912 0.057 1.197 0.115v4.358c-0.57-0.057-1.026-0.115-1.368-0.115-2.565 0-3.819 1.663-3.819 4.875v5.677h-4.617v0.057z"></path>
<path d="M21.205 0v10.667h-10.603l-10.603-10.667h21.205zM0 10.667h10.603l10.603 10.667h-10.603v10.667l-10.603-10.667v-10.667z"></path>
</svg>
