<!-- Generated by IcoMoon.io -->
<svg version="1.1" xmlns="http://www.w3.org/2000/svg" width="97" height="32" viewBox="0 0 97 32">
<path d="M0 0h32v32h-32v-32z"></path>
<path d="M40.533 19.632v-17.021h4.715v16.728c0 3.852 2.1 5.98 5.93 5.98s5.967-2.164 5.967-5.98v-16.728h4.715v17.021c0 6.273-4.125 10.235-10.682 10.235-6.52 0-10.645-3.925-10.645-10.235z"></path>
<path d="M72.374 2.61v26.816h-4.715v-26.816h4.715z"></path>
<path d="M76.906 21.833c0-3.192 1.805-5.759 4.604-6.823-2.357-1.064-3.647-3.081-3.647-5.686 0-4.255 3.794-7.19 9.355-7.19 5.525 0 9.245 2.898 9.245 7.263 0 2.605-1.326 4.622-3.72 5.613 2.836 0.991 4.678 3.595 4.678 6.823 0 4.842-4.015 8.034-10.276 8.034-6.225 0-10.24-3.155-10.24-8.034zM82.136 9.727c0 2.238 1.952 3.668 5.010 3.668 3.020 0 4.935-1.394 4.935-3.632s-1.915-3.632-4.935-3.632c-3.058 0-5.010 1.394-5.010 3.595zM81.51 21.503c0 2.605 2.173 4.219 5.672 4.219 3.426 0 5.599-1.614 5.599-4.219s-2.173-4.219-5.636-4.219c-3.462 0-5.636 1.614-5.636 4.219z"></path>
</svg>
