<!-- Generated by IcoMoon.io -->
<svg version="1.1" xmlns="http://www.w3.org/2000/svg" width="196" height="32" viewBox="0 0 196 32">
<path d="M9.219 28.842c3.784 0 6.817-1.020 9.098-3.060 2.308-2.067 3.462-5.166 3.462-9.3s-1.302-7.421-3.905-9.863c-2.576-2.442-5.77-3.663-9.581-3.663-2.442 0-4.563 0.067-6.361 0.201v25.362c1.744 0.215 4.173 0.322 7.287 0.322zM8.293 1.185c4.428 0 8.132 1.382 11.111 4.147 2.979 2.738 4.469 6.468 4.469 11.192 0 2.389-0.389 4.509-1.168 6.361-0.751 1.825-1.798 3.288-3.14 4.388-2.764 2.228-6.213 3.341-10.346 3.341-2.711 0-5.784-0.148-9.219-0.443v-28.704c2.738-0.188 5.502-0.282 8.293-0.282z"></path>
<path d="M32.344 30.251v-26.127h1.852v26.127h-1.852z"></path>
<path d="M52.398 24.776l8.736-20.652h1.932l-11.232 26.288h-1.087l-11.232-26.288h2.013l9.863 23.229c0.134-0.402 0.47-1.261 1.006-2.576z"></path>
<path d="M67.679 21.193l-3.744 9.058h-1.892l10.95-26.288h1.087l11.031 26.288h-2.053l-3.784-9.058h-11.594zM73.436 6.942c-0.403 1.208-0.765 2.214-1.087 3.019l-4.026 9.662h10.306l-3.986-9.622c-0.617-1.503-1.020-2.523-1.208-3.060z"></path>
<path stroke-linejoin="miter" stroke-linecap="butt" stroke-miterlimit="4" stroke-width="1.6774" stroke="#000" fill="#000" d="M107.891 24.188l-0.004 0.004c-1.878 1.683-4.413 2.564-7.693 2.564-2.269 0-4.134-0.068-5.603-0.2v-21.367c1.216-0.070 2.813-0.105 4.797-0.105 3.238 0 5.913 1.030 8.080 3.073v0l0.004 0.003c2.165 2.017 3.276 4.746 3.276 8.283 0 3.575-0.999 6.101-2.857 7.746v0zM90.981 28.883v0.764l0.761 0.071c2.896 0.271 5.713 0.406 8.452 0.406 4.078 0 7.479-1.121 10.13-3.425 2.732-2.351 4.034-5.823 4.034-10.256 0-4.459-1.425-8.068-4.337-10.722-2.854-2.653-6.419-3.966-10.632-3.966-2.913 0-5.458 0.081-7.631 0.244l-0.776 0.058v26.825zM124.339 11.251v0l-0.005-0.004c-1.069-1.022-1.553-2.114-1.553-3.299 0-1.030 0.358-1.751 1.041-2.273 0.731-0.559 1.719-0.874 3.033-0.874 2.069 0 3.86 0.383 5.391 1.124l0.77 0.373 0.357-0.777 0.685-1.49 0.34-0.742-0.732-0.361c-1.927-0.949-4.082-1.415-6.449-1.415-2.374 0-4.352 0.537-5.835 1.711v-0l-0.007 0.005c-1.481 1.198-2.203 2.859-2.203 4.879 0 2.039 0.786 3.831 2.298 5.343v0l0.012 0.011c0.735 0.708 1.387 1.291 1.95 1.742l0.011 0.008 0.011 0.008c0.549 0.412 1.498 1.090 2.84 2.029v0l0.006 0.004c1.344 0.922 2.387 1.762 3.143 2.518v0l0.007 0.007c1.028 1.004 1.478 2.032 1.478 3.104 0 1.317-0.471 2.264-1.393 2.95v0l-0.008 0.006c-0.929 0.708-2.308 1.117-4.242 1.117-1.858 0-3.629-0.559-5.327-1.708l-0.69-0.467-1.885 2.749 0.625 0.485c1.969 1.528 4.387 2.27 7.197 2.27 2.789 0 5.075-0.584 6.75-1.863l0.001-0.001c1.748-1.342 2.583-3.301 2.583-5.738 0-1.96-0.76-3.684-2.219-5.142v-0l-0.011-0.011c-0.735-0.708-1.375-1.279-1.914-1.705-0.538-0.425-1.502-1.098-2.865-2.007-1.314-0.92-2.375-1.776-3.191-2.567zM160.203 15h-0.839v11.011c-1.538 0.536-3.66 0.824-6.407 0.824-2.853 0-5.326-1.044-7.457-3.175-2.121-2.148-3.177-4.738-3.177-7.822 0-3.116 0.943-5.689 2.805-7.775 1.886-2.109 4.171-3.142 6.904-3.142 2.897 0 5.698 0.417 8.408 1.251l0.796 0.245 0.25-0.794 0.484-1.53 0.25-0.794-0.792-0.257c-2.981-0.966-6.034-1.45-9.156-1.45-3.973 0-7.275 1.373-9.833 4.133l-0.004 0.003c-2.517 2.746-3.763 6.148-3.763 10.148 0 4.003 1.401 7.413 4.194 10.177s6.242 4.148 10.292 4.148c3.912 0 7.055-0.654 9.336-2.057l0.399-0.246v-12.902h-2.69zM170.003 28.963v0.839h3.529v-19.639c0-0.491-0.001-0.941-0.005-1.349l0.652 0.794 0.007 0.010 0.008 0.009 17.723 20.336h2.106v-27.966h-3.529v19.76c0 0.457 0.001 0.88 0.005 1.268-0.314-0.393-0.645-0.785-0.991-1.176-0.001-0.001-0.002-0.002-0.004-0.003l-17.395-20.009h-2.107v27.127z"></path>
</svg>
