<!-- Generated by IcoMoon.io -->
<svg version="1.1" xmlns="http://www.w3.org/2000/svg" width="32" height="32" viewBox="0 0 32 32">
<path d="M14.25 7.219c0 0.464 0.184 0.909 0.513 1.237s0.773 0.513 1.237 0.513 0.909-0.184 1.237-0.513c0.328-0.328 0.513-0.773 0.513-1.237s-0.184-0.909-0.513-1.237c-0.328-0.328-0.773-0.513-1.237-0.513s-0.909 0.184-1.237 0.513c-0.328 0.328-0.513 0.773-0.513 1.237zM14.25 15.969c0 0.464 0.184 0.909 0.513 1.237s0.773 0.513 1.237 0.513 0.909-0.184 1.237-0.513c0.328-0.328 0.513-0.773 0.513-1.237s-0.184-0.909-0.513-1.237c-0.328-0.328-0.773-0.513-1.237-0.513s-0.909 0.184-1.237 0.513c-0.328 0.328-0.513 0.773-0.513 1.237zM14.25 24.719c0 0.464 0.184 0.909 0.513 1.237s0.773 0.513 1.237 0.513 0.909-0.184 1.237-0.513c0.328-0.328 0.513-0.773 0.513-1.237s-0.184-0.909-0.513-1.237c-0.328-0.328-0.773-0.513-1.237-0.513s-0.909 0.184-1.237 0.513c-0.328 0.328-0.513 0.773-0.513 1.237z"></path>
</svg>
