<!-- Generated by IcoMoon.io -->
<svg version="1.1" xmlns="http://www.w3.org/2000/svg" width="32" height="32" viewBox="0 0 32 32">
<path d="M28.251 21.749c-0.007-0.012-0.017-0.022-0.024-0.034l0.001-0-8.61-14.912-0.005 0.003c-0.071-0.113-0.175-0.203-0.297-0.256l0.012-0.007-2.556-1.476 9.295 16.101c0.008 0.011 0.017 0.021 0.024 0.034 0.089 0.154 0.113 0.336 0.067 0.507s-0.158 0.317-0.311 0.406l0.004 0.008-9.555 5.517 0.414 0.716c0.008 0.018 0.014 0.036 0.024 0.053 0.086 0.149 0.227 0.259 0.392 0.306s0.343 0.030 0.495-0.050l0.002 0.003 10.389-5.998-0.005-0.008c0.153-0.089 0.265-0.235 0.311-0.406s0.022-0.354-0.067-0.507z"></path>
<path d="M23.641 21.486c0.154-0.089 0.266-0.235 0.311-0.406s0.022-0.354-0.067-0.507c-0.007-0.012-0.017-0.022-0.024-0.034l0.001-0-8.61-14.912-0.005 0.003c-0.071-0.113-0.175-0.203-0.297-0.256l0.012-0.007-3.523-2.034v0.014c-0.089-0.051-0.189-0.080-0.291-0.086s-0.205 0.012-0.299 0.052l-0.004-0.007-0.066 0.038c-0.001 0.001-0.003 0.001-0.004 0.002s-0.002 0.002-0.004 0.003l-6.779 3.914c-0.099 0.057-0.182 0.14-0.24 0.239s-0.090 0.211-0.092 0.326l-0.002-0.001v4.068l0.007-0.004c-0.015 0.137 0.010 0.279 0.084 0.407 0.004 0.008 0.010 0.013 0.015 0.021l8.581 14.863c0.008 0.018 0.014 0.036 0.024 0.053 0.086 0.149 0.227 0.259 0.392 0.306s0.343 0.030 0.495-0.050l0.002 0.003 10.389-5.998-0.005-0.008zM9.454 8.808c-0.212 0.122-0.455 0.179-0.699 0.163s-0.478-0.104-0.672-0.253c-0.194-0.149-0.34-0.352-0.418-0.584s-0.087-0.481-0.023-0.718c0.063-0.236 0.195-0.449 0.379-0.61s0.412-0.264 0.654-0.296c0.243-0.032 0.489 0.009 0.708 0.117s0.402 0.279 0.524 0.491c0.081 0.141 0.134 0.296 0.155 0.457s0.011 0.325-0.032 0.482c-0.042 0.157-0.115 0.304-0.214 0.433s-0.222 0.237-0.363 0.318z"></path>
</svg>
