<!-- Generated by IcoMoon.io -->
<svg version="1.1" xmlns="http://www.w3.org/2000/svg" width="32" height="32" viewBox="0 0 32 32">
<path d="M4 23v5h5l14.747-14.76-5-5-14.747 14.76zM30.147 24.48l-5.667 5.667-6.933-6.933 2.36-2.36 1.333 1.333 3.293-3.307 1.893 1.893-1.947 1.893 1.413 1.333 1.893-1.867 2.36 2.347zM8.813 14.44l-6.96-6.92 5.667-5.667 2.347 2.36-3.293 3.307 1.427 1.413 3.28-3.307 1.893 1.893-1.893 1.88 1.333 1.333-3.8 3.707zM27.613 9.333c0.52-0.52 0.52-1.333 0-1.88l-3.12-3.067c-0.493-0.52-1.36-0.52-1.88 0l-2.453 2.44 5 5 2.453-2.493z"></path>
</svg>
