<!-- Generated by IcoMoon.io -->
<svg version="1.1" xmlns="http://www.w3.org/2000/svg" width="32" height="32" viewBox="0 0 32 32">
<path d="M17.333 8h-2.667v1.333c0 0.354 0.141 0.693 0.391 0.943s0.589 0.391 0.943 0.391c0.354 0 0.693-0.14 0.943-0.391s0.391-0.589 0.391-0.943v-1.333z"></path>
<path d="M8 2.667h16v2.667h-1.333v4c0 0.875-0.172 1.742-0.507 2.551s-0.826 1.544-1.445 2.163c-0.619 0.619-1.354 1.11-2.163 1.445s-1.676 0.507-2.551 0.507c1.768 0 3.464 0.702 4.714 1.953s1.953 2.946 1.953 4.714v4h1.333v2.667h-16v-2.667h1.333v-4c0-1.768 0.702-3.464 1.953-4.714s2.946-1.953 4.714-1.953c-1.768 0-3.464-0.702-4.714-1.953s-1.953-2.946-1.953-4.714v-4h-1.333v-2.667zM12 5.333v4c0 1.061 0.421 2.078 1.172 2.828s1.768 1.172 2.828 1.172c1.061 0 2.078-0.421 2.828-1.172s1.172-1.768 1.172-2.828v-4h-8zM12 22.667v4h8v-4c0-1.061-0.421-2.078-1.172-2.828s-1.768-1.172-2.828-1.172c-1.061 0-2.078 0.421-2.828 1.172s-1.172 1.768-1.172 2.828z"></path>
</svg>
